solid Part 1. STL generated by ONSHAPE BY PTC INC, 1.212. Units = meters
   facet normal 0 -1 0
      outer loop
         vertex -0.00996235 -0.00869729 0.007
         vertex -0.00996235 -0.00869729 0
         vertex 0.00996235 -0.00869729 0
      endloop
   endfacet
   facet normal 0 -1 0
      outer loop
         vertex 0.00996235 -0.00869729 0
         vertex 0.00996235 -0.00869729 0.007
         vertex -0.00996235 -0.00869729 0.007
      endloop
   endfacet
   facet normal 1 0 0
      outer loop
         vertex 0.00996235 -0.00869729 0.007
         vertex 0.00996235 -0.00869729 0
         vertex 0.00996235 0.00869729 0
      endloop
   endfacet
   facet normal 1 0 0
      outer loop
         vertex 0.00996235 0.00869729 0
         vertex 0.00996235 0.00869729 0.007
         vertex 0.00996235 -0.00869729 0.007
      endloop
   endfacet
   facet normal 0 1 0
      outer loop
         vertex 0.00996235 0.00869729 0.007
         vertex 0.00996235 0.00869729 0
         vertex -0.00996235 0.00869729 0
      endloop
   endfacet
   facet normal 0 1 0
      outer loop
         vertex -0.00996235 0.00869729 0
         vertex -0.00996235 0.00869729 0.007
         vertex 0.00996235 0.00869729 0.007
      endloop
   endfacet
   facet normal -1 0 0
      outer loop
         vertex -0.00996235 0.00869729 0.007
         vertex -0.00996235 0.00869729 0
         vertex -0.00996235 -0.00869729 0
      endloop
   endfacet
   facet normal -1 0 0
      outer loop
         vertex -0.00996235 -0.00869729 0
         vertex -0.00996235 -0.00869729 0.007
         vertex -0.00996235 0.00869729 0.007
      endloop
   endfacet
   facet normal 0 0 1
      outer loop
         vertex -0.00996235 0.00869729 0.007
         vertex -0.00996235 -0.00869729 0.007
         vertex 0.00996235 -0.00869729 0.007
      endloop
   endfacet
   facet normal 0 0 1
      outer loop
         vertex 0.00996235 -0.00869729 0.007
         vertex 0.00996235 0.00869729 0.007
         vertex -0.00996235 0.00869729 0.007
      endloop
   endfacet
   facet normal 0 0 -1
      outer loop
         vertex 0.00996235 0.00869729 0
         vertex 0.00996235 -0.00869729 0
         vertex -0.00996235 -0.00869729 0
      endloop
   endfacet
   facet normal 0 0 -1
      outer loop
         vertex -0.00996235 -0.00869729 0
         vertex -0.00996235 0.00869729 0
         vertex 0.00996235 0.00869729 0
      endloop
   endfacet
endsolid Part 1. Units = meters